<svg width="22" height="14" viewBox="0 0 22 14" fill="none" xmlns="http://www.w3.org/2000/svg">
<path d="M21.5003 1.25V7.25C21.5008 7.39807 21.4574 7.54296 21.3757 7.66642C21.2939 7.78988 21.1774 7.88637 21.0409 7.94375C20.9484 7.98049 20.8499 7.99957 20.7503 8C20.5512 7.99916 20.3599 7.92199 20.2159 7.78437L17.7503 5.30938L12.2847 10.7844C12.1425 10.9252 11.9504 11.0042 11.7503 11.0042C11.5502 11.0042 11.3581 10.9252 11.2159 10.7844L8.00031 7.55938L1.78469 13.7844C1.64072 13.922 1.44947 13.9992 1.25031 14C1.05153 13.9973 0.860929 13.9204 0.715938 13.7844C0.575101 13.6422 0.496094 13.4501 0.496094 13.25C0.496094 13.0499 0.575101 12.8578 0.715938 12.7156L7.46594 5.96563C7.60813 5.82479 7.80018 5.74578 8.00031 5.74578C8.20045 5.74578 8.39249 5.82479 8.53469 5.96563L11.7503 9.19062L16.6909 4.25L14.2159 1.78438C14.1142 1.67594 14.0452 1.54091 14.017 1.39491C13.9888 1.24891 14.0025 1.09791 14.0566 0.959375C14.115 0.823599 14.2117 0.707812 14.3349 0.626214C14.4582 0.544615 14.6025 0.500751 14.7503 0.5H20.7503C20.9492 0.5 21.14 0.579018 21.2806 0.71967C21.4213 0.860322 21.5003 1.05109 21.5003 1.25Z" fill="#58A776"/>
</svg>
