<svg width="23" height="24" viewBox="0 0 23 24" fill="none" xmlns="http://www.w3.org/2000/svg">
<path d="M0 21.6667V2.16667H3.25V0H5.41667V2.16667H14.0833V0H16.25V2.16667H19.5V10.8333H17.3333V8.66667H2.16667V19.5H9.75V21.6667H0ZM17.3333 23.8333C16.0153 23.8333 14.8644 23.4228 13.8808 22.6016C12.8971 21.7804 12.2785 20.7466 12.025 19.5H13.7042C13.9389 20.2944 14.3859 20.9444 15.0453 21.45C15.7047 21.9556 16.4674 22.2083 17.3333 22.2083C18.3806 22.2083 19.2743 21.8382 20.0146 21.0979C20.7549 20.3576 21.125 19.4639 21.125 18.4167C21.125 17.3694 20.7549 16.4757 20.0146 15.7354C19.2743 14.9951 18.3806 14.625 17.3333 14.625C16.8097 14.625 16.3222 14.7196 15.8708 14.9088C15.4194 15.0981 15.0222 15.3646 14.6792 15.7083H16.25V17.3333H11.9167V13H13.5417V14.5438C14.0292 14.0743 14.5979 13.6998 15.2479 13.4203C15.8979 13.1408 16.5931 13.0007 17.3333 13C18.8319 13 20.1096 13.5283 21.1662 14.5849C22.2228 15.6415 22.7507 16.9188 22.75 18.4167C22.7493 19.9146 22.221 21.1922 21.1651 22.2495C20.1092 23.3068 18.8319 23.8348 17.3333 23.8333ZM2.16667 6.5H17.3333V4.33333H2.16667V6.5Z" fill="white"/>
</svg>
