<svg width="24" height="24" viewBox="0 0 24 24" fill="none" xmlns="http://www.w3.org/2000/svg">
<path d="M11.3625 14.8033C12.3688 14.1348 13.1331 13.1601 13.5424 12.0235C13.9516 10.8869 13.9841 9.64875 13.635 8.49224C13.2859 7.33574 12.5737 6.32236 11.6039 5.60207C10.634 4.88178 9.45806 4.49286 8.25001 4.49286C7.04196 4.49286 5.866 4.88178 4.89617 5.60207C3.92633 6.32236 3.21416 7.33574 2.86503 8.49224C2.51591 9.64875 2.54838 10.8869 2.95766 12.0235C3.36693 13.1601 4.13125 14.1348 5.13751 14.8033C3.42092 15.4345 1.93883 16.5763 0.890635 18.0751C0.80876 18.1863 0.760027 18.3184 0.750072 18.4561C0.740118 18.5938 0.769349 18.7315 0.834385 18.8533C0.898652 18.9742 0.994453 19.0756 1.11163 19.1466C1.22882 19.2175 1.36302 19.2555 1.50001 19.2564H15C15.137 19.2555 15.2712 19.2175 15.3884 19.1466C15.5056 19.0756 15.6014 18.9742 15.6656 18.8533C15.7307 18.7315 15.7599 18.5938 15.7499 18.4561C15.74 18.3184 15.6913 18.1863 15.6094 18.0751C14.5612 16.5763 13.0791 15.4345 11.3625 14.8033Z" fill="white"/>
<path d="M23.2595 18.075C22.2053 16.5781 20.7209 15.437 19.0032 14.8032C20.0127 14.1372 20.7802 13.1633 21.1916 12.0261C21.603 10.8889 21.6363 9.64931 21.2866 8.49167C20.9369 7.33403 20.2228 6.32021 19.2506 5.60102C18.2784 4.88182 17.1 4.49568 15.8907 4.50004C15.3746 4.50277 14.861 4.5721 14.3626 4.70629C14.2455 4.74145 14.1385 4.80401 14.0505 4.8888C13.9624 4.97358 13.8959 5.07813 13.8563 5.19379C13.8186 5.30849 13.8091 5.43061 13.8287 5.54976C13.8483 5.66891 13.8964 5.78157 13.9688 5.87816C14.8167 7.01739 15.3038 8.38452 15.3673 9.80323C15.4308 11.2219 15.0678 12.6271 14.3251 13.8375C14.2298 13.9984 14.1973 14.1887 14.2336 14.372C14.2699 14.5554 14.3726 14.7189 14.522 14.8313C14.8032 15.05 15.0751 15.275 15.3376 15.5063L15.3845 15.5532C16.3851 16.4792 17.197 17.5903 17.7751 18.825C17.8344 18.9541 17.9296 19.0633 18.0492 19.1398C18.1689 19.2162 18.3081 19.2567 18.4501 19.2563H22.6407C22.7777 19.2554 22.9119 19.2174 23.0291 19.1465C23.1463 19.0755 23.2421 18.9741 23.3063 18.8532C23.3706 18.7316 23.4002 18.5948 23.3919 18.4575C23.3837 18.3203 23.3378 18.188 23.2595 18.075Z" fill="white"/>
</svg>
